# xmcd
#
# Track frame offsets:
#	150
#	14341
#	30629
#	43947
#	61756
#	78360
#	93740
#	107433
#	124039
#
# Disc length: 1902 seconds
#
# Revision: 1
# Processed by: cddbd v1.5.2PL0 Copyright (c) Steve Scherf et al.
# Submitted via: audiograbber 1.83.01
#
DISCID=6a076c09
DTITLE=Nine Pack - Losers Like Us
DYEAR=2009
DGENRE=Alt-Country
TTITLE0=Beer Me (Explicit)
TTITLE1=My Inlaws Might Be Outlaws
TTITLE2=Wish I'd Met You Sooner
TTITLE3=Bad Pirates
TTITLE4=Diggin'
TTITLE5=Woo Girls
TTITLE6=Road Kill
TTITLE7=Supply and Demand
TTITLE8=Losers Like Us
EXTD=
EXTT0=
EXTT1=
EXTT2=
EXTT3=
EXTT4=
EXTT5=
EXTT6=
EXTT7=
EXTT8=
PLAYORDER=
